<svg width="115" height="115" viewBox="0 0 115 115" fill="none" xmlns="http://www.w3.org/2000/svg">
<g filter="url(#filter0_d_1004_5)">
<ellipse cx="28.8976" cy="28.1752" rx="28.8976" ry="28.1752" transform="matrix(0.99994 0.0109829 0.0109829 0.99994 27.864 28.5784)" fill="url(#paint0_linear_1004_5)"/>
</g>
<path d="M56.7488 38.5315C62.0311 38.5896 67.3134 38.6476 72.5957 38.7056C72.6276 38.7254 72.6586 38.7533 72.6935 38.7619C74.573 39.2263 75.6005 40.5138 75.6217 42.4406C75.6756 47.2596 75.7306 52.0797 75.7764 56.8986C75.7792 57.2535 75.7546 57.6173 75.6725 57.9589C75.2901 59.551 73.9288 60.5535 72.181 60.5384C69.157 60.5124 66.1338 60.4741 63.1096 60.4408C62.9664 60.4393 62.8233 60.4377 62.6791 60.4361C62.6631 60.4758 62.6482 60.5145 62.6323 60.5542C62.8699 60.7695 63.1165 60.9757 63.3429 61.2022C65.0128 62.872 65.0393 64.9123 63.4128 66.5419C60.2369 69.7251 57.0526 72.899 53.8891 76.0956C53.1417 76.8503 53.8928 76.0237 52.8008 76.2233C52.4695 76.2197 52.1371 76.2161 51.8057 76.2124C50.7101 75.9907 49.9304 75.2878 49.1672 74.5166C46.0847 71.3996 42.9879 68.2968 39.877 65.2092C39.1058 64.444 38.409 63.6602 38.1842 62.5646C38.1806 62.2322 38.1769 61.8999 38.1733 61.5675C38.376 60.4755 37.5412 61.2214 38.2958 60.472C41.4954 57.2952 44.6711 54.0936 47.8583 50.9044C49.4504 49.3113 51.502 49.3389 53.1346 50.9705C53.3744 51.2104 53.6173 51.4472 53.9264 51.7512C53.9238 51.5109 53.9223 51.3739 53.9208 51.2368C53.8875 48.2075 53.8501 45.1772 53.823 42.148C53.8077 40.4728 54.7167 39.1657 56.2106 38.6903C56.3889 38.6329 56.5694 38.5838 56.7488 38.5315ZM64.7062 40.9198C62.2957 40.8933 59.8851 40.8658 57.4756 40.8403C56.5716 40.8304 56.1113 41.2855 56.1202 42.1906C56.1712 47.0209 56.2242 51.8501 56.2793 56.6804C56.2893 57.5865 56.7609 58.0672 57.6547 58.077C62.4881 58.1322 67.3214 58.1852 72.1547 58.2363C73.0353 58.246 73.4944 57.7786 73.4847 56.898C73.4326 52.0555 73.3794 47.2129 73.3252 42.3704C73.3153 41.4694 72.848 41.0092 71.9378 40.9982C69.5262 40.9717 67.1167 40.9462 64.7062 40.9198ZM53.9397 56.1209C53.9509 56.12 53.9632 56.1191 53.9744 56.1182C53.9723 55.927 53.9497 55.7324 53.9722 55.5435C54.0171 55.1667 53.8629 54.9011 53.5911 54.6415C52.8645 53.9453 52.1653 53.2187 51.4509 52.5094C50.8233 51.8859 50.185 51.8666 49.5802 52.4725C46.1695 55.8842 44.2775 57.7824 40.873 61.2004C40.3218 61.7537 40.3312 62.4266 40.8958 62.9942C44.3855 66.4971 47.8782 69.9959 51.374 73.4927C51.9426 74.0614 52.6135 74.0667 53.1627 73.5164C56.5815 70.0956 58.4826 68.1873 61.8983 64.7623C62.4526 64.207 62.4503 63.5361 61.8929 62.9717C61.0539 62.1326 60.3129 61.3754 59.5077 60.5925C59.395 60.4829 59.2 60.4143 59.0403 60.4043C58.5441 60.3753 58.0452 60.3944 57.5481 60.3767C55.8305 60.3169 54.4586 59.2343 54.0899 57.6074C53.9813 57.1235 53.987 56.6174 53.9397 56.1209Z" fill="#D95656"/>
<path d="M68.4721 54.2283C68.4714 53.6015 68.9842 53.0917 69.605 53.1026C70.2177 53.1124 70.7543 53.6501 70.7641 54.2637C70.7741 54.8968 70.242 55.4166 69.6016 55.3983C68.9695 55.3801 68.4719 54.8644 68.4721 54.2283Z" fill="#D95656"/>
<path d="M59.0267 44.7934C59.0126 44.1562 59.508 43.6411 60.1379 43.6378C60.7524 43.6343 61.2992 44.167 61.3173 44.7869C61.3353 45.4047 60.8176 45.9338 60.1948 45.9352C59.5578 45.9364 59.0399 45.4296 59.0267 44.7934Z" fill="#D95656"/>
<path d="M60.275 55.296C59.6479 55.2768 59.139 54.7507 59.1424 54.1239C59.1458 53.5043 59.6698 52.9885 60.2845 53.0004C60.9156 53.0124 61.4494 53.5705 61.4369 54.2023C61.4233 54.827 60.9061 55.3142 60.275 55.296Z" fill="#D95656"/>
<path d="M63.673 49.4347C63.666 48.8016 64.1758 48.2877 64.8007 48.2946C65.4153 48.3013 65.9571 48.8442 65.9639 49.4609C65.9707 50.0827 65.4508 50.5985 64.8249 50.5916C64.1897 50.5826 63.68 50.0718 63.673 49.4347Z" fill="#D95656"/>
<path d="M68.2315 44.8802C68.2238 44.2656 68.7426 43.7385 69.3571 43.7391C69.9748 43.7388 70.5072 44.262 70.5232 44.8829C70.5405 45.5304 70.0308 46.0463 69.3854 46.0362C68.7636 46.0263 68.2394 45.5021 68.2315 44.8802Z" fill="#D95656"/>
<path d="M50.528 62.6037C51.165 62.6036 51.6829 63.1073 51.698 63.7425C51.7131 64.3725 51.2116 64.8916 50.5838 64.8949C49.9611 64.8983 49.4298 64.3781 49.4126 63.747C49.3965 63.1149 49.894 62.6039 50.528 62.6037Z" fill="#D95656"/>
<defs>
<filter id="filter0_d_1004_5" x="24.1718" y="28.894" width="65.7952" height="64.3503" filterUnits="userSpaceOnUse" color-interpolation-filters="sRGB">
<feFlood flood-opacity="0" result="BackgroundImageFix"/>
<feColorMatrix in="SourceAlpha" type="matrix" values="0 0 0 0 0 0 0 0 0 0 0 0 0 0 0 0 0 0 127 0" result="hardAlpha"/>
<feOffset dy="4"/>
<feGaussianBlur stdDeviation="2"/>
<feComposite in2="hardAlpha" operator="out"/>
<feColorMatrix type="matrix" values="0 0 0 0 0 0 0 0 0 0 0 0 0 0 0 0 0 0 0.25 0"/>
<feBlend mode="normal" in2="BackgroundImageFix" result="effect1_dropShadow_1004_5"/>
<feBlend mode="normal" in="SourceGraphic" in2="effect1_dropShadow_1004_5" result="shape"/>
</filter>
<linearGradient id="paint0_linear_1004_5" x1="28.8143" y1="-3.74378e-06" x2="28.9809" y2="56.3503" gradientUnits="userSpaceOnUse">
<stop stop-color="#E8A2A2"/>
<stop offset="1" stop-color="#D5A8CA"/>
</linearGradient>
</defs>
</svg>
